<?xml version="1.0" standalone="no"?>
<!DOCTYPE svg PUBLIC "-//W3C//DTD SVG 20010904//EN"
 "http://www.w3.org/TR/2001/REC-SVG-20010904/DTD/svg10.dtd">
<svg version="1.0" xmlns="http://www.w3.org/2000/svg"
 width="500.000000pt" height="500.000000pt" viewBox="0 0 500.000000 500.000000"
 preserveAspectRatio="xMidYMid meet">
<metadata>
Created by potrace 1.14, written by Peter Selinger 2001-2017
</metadata>
<g transform="translate(0.000000,500.000000) scale(0.100000,-0.100000)"
fill="#000000" stroke="none">
<path d="M2250 4875 c-47 -7 -101 -16 -120 -20 -19 -3 -46 -8 -60 -10 -14 -2
-70 -17 -125 -33 -537 -157 -994 -538 -1239 -1035 -90 -181 -161 -390 -180
-532 -2 -11 -6 -36 -9 -55 -15 -84 -19 -134 -22 -275 -3 -150 8 -296 30 -405
3 -14 7 -36 10 -50 20 -108 84 -302 143 -430 89 -196 225 -391 387 -555 196
-199 348 -309 581 -420 105 -50 332 -130 399 -141 22 -3 43 -8 46 -10 4 -2 26
-6 49 -9 24 -3 46 -7 49 -9 30 -19 426 -28 551 -12 357 44 692 178 975 392
119 89 189 154 300 275 52 57 205 261 205 273 0 2 19 37 43 78 82 138 174 379
211 548 55 254 59 579 11 820 -3 14 -7 36 -10 50 -9 50 -63 226 -89 295 -176
450 -517 831 -946 1058 -53 28 -237 106 -300 127 -253 86 -632 122 -890 85z
m480 -130 c165 -24 362 -75 473 -121 373 -156 660 -391 876 -719 136 -205 224
-422 277 -685 28 -140 39 -439 21 -545 -3 -16 -8 -52 -12 -79 -46 -362 -236
-748 -505 -1021 -140 -143 -234 -218 -380 -307 -87 -53 -220 -121 -220 -113 0
3 -10 -1 -22 -9 -26 -17 -228 -88 -228 -80 0 2 -8 0 -17 -5 -10 -5 -31 -11
-48 -14 -16 -3 -43 -9 -60 -12 -154 -30 -214 -35 -380 -35 -135 0 -169 2 -265
16 -25 3 -55 8 -68 9 -35 5 -124 26 -150 36 -13 5 -30 9 -38 9 -22 0 -197 67
-284 108 -107 51 -310 174 -310 187 0 3 28 -12 61 -31 136 -80 341 -156 480
-179 14 -2 53 -9 85 -14 62 -10 401 -8 444 3 14 3 41 9 60 12 321 50 683 268
901 539 52 66 146 213 166 261 10 24 21 44 26 44 4 0 7 6 7 13 0 8 12 42 26
78 31 76 76 247 68 260 -3 5 -2 9 3 9 11 0 16 76 16 245 1 138 -1 160 -23 280
-25 131 -119 361 -194 475 -87 131 -223 283 -321 357 -27 21 -52 41 -55 44
-11 14 -130 86 -215 130 -141 74 -339 134 -510 157 -83 11 -355 7 -435 -7
-214 -37 -447 -127 -605 -233 -335 -226 -546 -531 -636 -920 -32 -135 -36
-403 -9 -543 11 -55 27 -120 35 -144 8 -25 13 -46 11 -48 -8 -8 -78 190 -92
260 -2 10 -6 27 -9 37 -10 32 -14 55 -30 175 -3 28 -8 61 -11 75 -6 32 -6 327
0 360 3 14 7 45 10 70 3 25 8 56 11 70 3 14 8 43 11 65 21 138 114 380 217
560 96 169 287 395 417 493 19 15 44 35 55 45 108 99 493 294 634 322 9 2 43
10 76 19 68 17 238 44 305 48 75 5 311 0 360 -7z m-350 -830 c47 -5 87 -9 90
-10 3 -1 32 -7 65 -15 70 -16 59 -13 115 -29 25 -7 50 -17 55 -21 6 -4 19 -10
30 -12 25 -4 258 -121 275 -138 3 -3 40 -31 83 -64 174 -132 324 -329 412
-541 84 -202 113 -399 92 -625 -10 -105 -22 -160 -54 -260 -147 -452 -527
-793 -1008 -905 -172 -39 -453 -39 -625 1 -14 3 -33 7 -43 9 -72 15 -345 130
-334 141 3 3 14 1 24 -4 16 -9 111 -36 168 -48 129 -28 301 -19 449 22 243 68
457 239 580 464 37 68 81 179 91 227 27 133 35 273 20 363 -3 25 -8 56 -11 70
-6 43 -44 152 -76 220 -155 328 -500 548 -863 548 -436 0 -804 -272 -933 -690
-31 -100 -36 -141 -36 -288 1 -146 20 -246 70 -358 31 -71 18 -58 -29 28 -31
57 -88 207 -104 272 -43 182 -51 370 -22 532 59 326 195 562 464 801 48 43
183 129 270 173 132 66 323 123 465 137 36 4 66 8 67 8 5 5 181 -1 253 -8z
m-345 -750 c66 -8 197 -52 265 -89 221 -119 391 -356 428 -596 13 -83 6 -262
-13 -335 -49 -195 -175 -376 -337 -486 -65 -45 -197 -109 -232 -113 -11 -2
-28 -6 -36 -9 -50 -21 -234 -28 -345 -14 -37 5 -113 25 -140 37 -11 5 -44 19
-72 31 -66 27 -69 42 -5 23 77 -23 184 -24 265 -2 40 10 77 20 82 21 6 1 37
18 70 36 119 67 218 197 259 339 23 79 16 239 -14 317 -67 175 -197 295 -380
349 -68 21 -224 20 -290 -1 -191 -61 -321 -193 -381 -388 -14 -43 -17 -196 -6
-260 9 -53 -6 -29 -34 52 -100 300 -29 606 200 856 58 63 236 176 306 194 6 1
35 10 65 18 30 9 80 18 110 21 30 4 56 7 58 9 4 3 117 -3 177 -10z m-209 -628
c251 -91 356 -389 217 -611 -45 -71 -96 -116 -172 -154 -67 -33 -84 -37 -163
-39 -88 -2 -129 6 -180 33 -16 8 -28 12 -28 8 0 -12 -74 48 -118 95 -52 56
-87 126 -96 191 -1 9 -4 20 -7 25 -6 13 -4 87 5 140 14 87 86 198 166 256 33
24 121 63 165 72 40 8 171 -2 211 -16z m-311 -1077 c3 -6 -1 -7 -9 -4 -18 7
-21 14 -7 14 6 0 13 -4 16 -10z"/>
<path d="M1436 631 c-1 -3 -2 -43 -1 -88 2 -84 -2 -95 -25 -69 -18 23 -78 39
-116 31 -44 -8 -100 -56 -113 -98 -52 -157 38 -298 173 -273 18 4 41 15 51 26
17 18 41 18 30 0 -3 -5 0 -12 7 -16 16 -10 98 -12 104 -2 4 7 7 207 5 416 l-1
83 -55 -2 c-31 -1 -57 -5 -59 -8z m-25 -227 c10 -9 16 -20 14 -25 -3 -4 -2
-10 3 -13 16 -10 5 -97 -15 -124 -26 -34 -69 -37 -100 -6 -22 22 -27 46 -25
104 4 75 72 111 123 64z"/>
<path d="M3070 388 l0 -253 55 0 c30 0 56 3 56 8 1 4 3 12 4 17 1 6 3 13 4 17
0 4 10 -3 21 -15 40 -42 137 -41 184 3 107 99 63 316 -68 340 -38 8 -98 -8
-116 -31 -22 -26 -27 -15 -26 64 1 42 0 83 -2 90 -3 7 -24 12 -58 12 l-54 0 0
-252z m221 33 c15 -2 42 -58 44 -91 4 -72 -35 -125 -86 -117 -49 8 -80 93 -57
160 16 44 40 56 99 48z"/>
<path d="M959 615 c-1 -5 -2 -109 -3 -230 -1 -121 -5 -229 -9 -241 -7 -21 -45
-44 -72 -44 -11 0 -15 -12 -15 -45 0 -44 1 -45 33 -45 83 0 155 42 176 101 6
17 9 130 8 271 l-2 243 -57 0 c-34 1 -59 -4 -59 -10z"/>
<path d="M2114 384 l1 -239 60 0 60 0 1 80 c0 45 3 86 7 92 8 13 55 4 82 -17
11 -8 35 -47 54 -86 l33 -71 62 1 c49 1 60 4 58 16 -7 38 -76 162 -102 183
l-28 24 24 13 c33 18 54 53 58 97 4 52 -11 86 -52 114 -32 22 -47 24 -177 27
l-142 4 1 -238z m231 126 c16 -17 16 -72 0 -88 -3 -3 -29 -6 -58 -7 l-52 0 2
50 c0 28 1 53 2 57 1 3 21 6 45 6 30 0 50 -5 61 -18z"/>
<path d="M3991 583 c1 -10 1 -33 0 -50 -1 -28 -5 -33 -26 -33 -14 0 -25 -6
-26 -12 0 -7 -2 -23 -3 -36 -3 -25 6 -34 36 -36 18 -1 20 -10 22 -106 3 -150
21 -170 157 -170 l68 0 -1 40 c0 40 -1 40 -38 40 -69 0 -70 2 -70 104 l0 92
58 0 57 -1 1 43 0 42 -58 0 -58 0 0 50 0 50 -61 0 c-51 0 -60 -3 -58 -17z"/>
<path d="M1761 500 c-58 -14 -115 -68 -127 -120 -12 -52 -5 -121 18 -161 45
-81 175 -111 301 -71 47 15 47 15 45 58 l-1 43 -28 -14 c-38 -20 -117 -32
-167 -26 -17 2 -52 43 -52 60 0 17 10 19 126 17 141 -1 151 4 134 63 -5 17 -6
31 -3 31 10 0 -40 75 -60 90 -51 37 -114 47 -186 30z m111 -87 c21 -18 24 -53
6 -54 -85 -5 -123 -2 -126 13 -5 24 38 58 72 58 16 0 38 -7 48 -17z"/>
<path d="M2716 496 c-93 -34 -132 -116 -112 -233 28 -156 294 -183 369 -38 32
63 25 151 -16 212 -41 61 -157 89 -241 59z m110 -79 c33 -11 47 -49 42 -112
-5 -62 -19 -82 -64 -91 -47 -9 -75 20 -82 84 -5 60 10 105 41 119 23 11 30 11
63 0z"/>
<path d="M3633 500 c-38 -12 -91 -63 -109 -105 -16 -40 -12 -131 8 -170 32
-62 94 -94 183 -95 97 0 175 61 189 149 13 85 -17 163 -79 201 -39 24 -142 35
-192 20z m130 -99 c33 -32 31 -130 -2 -165 -66 -71 -155 25 -121 129 21 63 79
80 123 36z"/>
</g>
</svg>
