<?xml version="1.0" standalone="no"?>
<!DOCTYPE svg PUBLIC "-//W3C//DTD SVG 20010904//EN"
 "http://www.w3.org/TR/2001/REC-SVG-20010904/DTD/svg10.dtd">
<svg version="1.0" xmlns="http://www.w3.org/2000/svg"
 width="512.000000pt" height="512.000000pt" viewBox="0 0 512.000000 512.000000"
 preserveAspectRatio="xMidYMid meet">
<metadata>
Created by potrace 1.14, written by Peter Selinger 2001-2017
</metadata>
<g transform="translate(0.000000,512.000000) scale(0.100000,-0.100000)"
fill="#000000" stroke="none">
<path d="M2397 5004 c-1 -2 -29 -5 -62 -8 -53 -5 -173 -25 -245 -42 -14 -3
-31 -6 -37 -6 -7 -1 -13 -5 -13 -9 0 -4 -8 -6 -17 -4 -10 1 -24 -2 -30 -8 -7
-5 -13 -7 -13 -4 0 7 -112 -32 -127 -45 -7 -6 -13 -7 -13 -4 0 4 -10 1 -22 -6
-13 -6 -29 -13 -36 -14 -14 -3 -226 -106 -257 -126 -99 -64 -177 -117 -215
-145 -138 -106 -292 -261 -385 -387 -16 -23 -33 -42 -37 -44 -5 -2 -8 -10 -8
-18 0 -8 -4 -14 -9 -14 -5 0 -14 -13 -21 -30 -7 -16 -15 -30 -19 -30 -3 0 -17
-21 -31 -47 -13 -27 -27 -50 -30 -53 -4 -3 -12 -20 -19 -37 -8 -18 -17 -33
-21 -33 -4 0 -10 -13 -13 -29 -3 -16 -13 -36 -22 -45 -9 -9 -14 -16 -10 -16 3
0 0 -10 -7 -22 -6 -13 -13 -28 -14 -33 -1 -6 -11 -33 -22 -60 -26 -64 -47
-119 -48 -125 0 -3 -6 -25 -13 -50 -7 -25 -15 -53 -17 -62 -2 -10 -6 -28 -9
-40 -51 -212 -65 -566 -31 -748 2 -14 7 -45 10 -70 3 -25 11 -61 16 -80 6 -19
13 -53 16 -75 4 -22 10 -45 14 -50 5 -6 11 -24 14 -40 2 -17 5 -32 6 -35 1 -3
2 -8 1 -13 0 -4 4 -7 9 -7 6 0 10 -6 8 -12 -1 -7 4 -24 12 -38 7 -14 13 -27
13 -30 -1 -8 7 -32 20 -60 6 -14 11 -27 12 -30 1 -3 9 -22 19 -42 9 -21 16
-41 15 -44 0 -4 3 -10 8 -13 5 -3 17 -23 26 -43 10 -20 22 -40 27 -43 6 -4 8
-11 5 -16 -4 -5 -2 -9 2 -9 5 0 17 -17 28 -37 16 -31 67 -106 127 -188 25 -34
108 -127 149 -168 27 -27 49 -52 49 -58 0 -5 3 -9 8 -9 4 0 26 -17 48 -38 68
-61 85 -75 196 -155 59 -42 112 -77 117 -77 5 0 16 -6 23 -13 7 -6 45 -28 83
-47 39 -19 73 -39 76 -43 3 -5 8 -8 10 -7 2 1 22 -5 44 -15 39 -17 215 -82
245 -90 8 -2 30 -8 48 -14 18 -5 35 -10 37 -10 19 -3 31 -5 80 -15 101 -21
127 -25 230 -35 82 -8 365 -6 425 3 14 2 48 7 75 10 141 19 331 72 481 134 76
32 206 94 214 102 3 3 37 24 75 47 82 48 256 177 268 198 4 8 12 15 17 15 20
0 243 238 264 281 5 11 12 19 16 19 4 0 32 37 61 83 30 45 57 84 62 85 4 2 5
7 2 12 -3 4 2 13 10 20 8 7 15 18 15 24 0 7 9 22 20 34 12 12 19 22 16 22 -3
0 13 36 35 80 21 44 39 82 39 84 0 3 5 17 12 33 6 15 12 30 12 33 1 3 4 10 7
15 7 11 39 106 39 117 1 4 7 26 15 49 8 22 14 43 14 47 -1 4 0 9 1 12 6 16 30
131 35 170 19 143 22 192 23 325 0 83 -6 193 -13 245 -7 52 -16 118 -20 145
-4 28 -11 52 -16 53 -5 2 -7 7 -5 11 4 6 -4 50 -18 96 -1 6 -8 30 -15 55 -7
25 -15 52 -18 60 -4 8 -7 17 -8 20 -3 9 -18 45 -33 80 -8 19 -14 38 -14 42 1
4 -22 51 -50 105 -29 54 -57 108 -62 120 -6 13 -14 23 -18 23 -5 0 -8 5 -8 10
0 10 -95 158 -109 170 -3 3 -21 25 -40 50 -43 56 -45 58 -139 155 -81 83 -169
165 -177 165 -5 0 -36 25 -59 46 -14 14 -164 111 -231 150 -64 38 -194 100
-227 109 -5 2 -11 4 -15 5 -5 1 -11 2 -15 1 -5 0 -8 4 -8 11 0 6 -3 9 -6 5 -4
-3 -20 1 -36 9 -17 9 -42 18 -56 20 -14 3 -30 8 -36 12 -11 6 -27 11 -56 16
-8 1 -25 6 -36 10 -12 3 -35 9 -50 11 -16 2 -47 9 -69 14 -52 12 -108 22 -170
28 -53 6 -393 12 -398 7z m408 -148 c22 -3 58 -8 80 -11 22 -4 48 -7 58 -8 9
-1 17 -4 17 -8 0 -3 11 -5 25 -4 14 2 25 -1 25 -6 0 -5 10 -9 21 -9 23 0 149
-34 184 -50 11 -5 65 -28 120 -51 55 -24 115 -51 133 -61 85 -48 107 -61 112
-67 3 -3 21 -14 40 -25 19 -10 40 -24 45 -31 6 -6 22 -18 36 -26 15 -8 46 -30
70 -49 57 -47 259 -244 259 -254 0 -3 14 -20 30 -36 17 -16 30 -34 30 -40 0
-5 3 -10 8 -10 4 0 18 -18 32 -40 14 -22 28 -40 33 -40 4 0 5 -4 2 -10 -3 -5
-3 -10 2 -10 7 0 45 -56 48 -70 0 -3 13 -24 28 -47 57 -90 142 -296 180 -441
14 -50 22 -93 19 -96 -3 -4 0 -6 7 -6 7 0 10 -4 7 -8 -3 -4 0 -27 5 -50 9 -42
15 -87 24 -187 12 -128 0 -407 -20 -485 -2 -8 -7 -31 -10 -50 -3 -19 -11 -40
-16 -46 -7 -8 -6 -14 1 -19 6 -3 7 -12 3 -18 -4 -7 -8 -15 -9 -19 -1 -5 -3
-10 -4 -13 -1 -3 -3 -8 -4 -12 -2 -5 -8 -28 -15 -53 -7 -25 -13 -46 -12 -47 3
-14 -119 -282 -159 -348 -17 -27 -33 -58 -36 -67 -4 -10 -10 -18 -14 -18 -4 0
-12 -11 -18 -25 -7 -14 -16 -31 -22 -38 -5 -7 -40 -50 -76 -97 -63 -81 -206
-228 -290 -298 -60 -50 -220 -156 -306 -202 -97 -52 -255 -120 -262 -112 -3 3
-6 -1 -6 -8 0 -7 -3 -10 -7 -7 -3 4 -12 2 -20 -4 -7 -6 -13 -9 -13 -5 0 3 -16
0 -35 -8 -19 -8 -35 -12 -35 -9 0 3 -7 0 -15 -7 -8 -7 -15 -10 -15 -7 0 3 -29
-2 -64 -12 -34 -10 -73 -17 -85 -16 -11 1 -21 -1 -21 -4 0 -3 -12 -7 -27 -8
-16 -1 -53 -5 -83 -9 -117 -16 -425 -9 -525 11 -16 4 -45 7 -62 8 -18 0 -33 5
-33 11 0 5 -3 7 -6 4 -3 -3 -22 -2 -42 4 -198 51 -394 130 -536 217 -37 22
-72 41 -78 41 -5 0 -6 5 -3 10 3 6 -1 10 -9 10 -9 0 -16 5 -16 11 0 6 16 1 35
-11 37 -23 68 -39 130 -65 22 -9 49 -21 60 -26 35 -14 148 -49 162 -49 7 0 13
-3 13 -7 0 -5 10 -8 23 -9 12 0 54 -7 92 -14 39 -7 84 -13 100 -14 17 -1 35
-4 40 -7 21 -11 358 2 405 16 8 2 30 7 49 10 19 3 38 8 41 10 4 3 24 7 44 10
85 14 296 100 405 166 34 22 67 39 72 39 5 0 9 5 9 10 0 6 7 10 15 10 8 0 15
5 15 10 0 6 4 10 10 10 5 0 20 10 33 22 13 13 39 34 57 48 70 52 262 262 283
310 12 27 32 55 45 63 7 5 10 12 7 18 -4 5 -1 9 5 9 6 0 8 5 5 10 -3 6 -1 10
5 10 6 0 9 4 6 9 -4 5 -3 11 2 13 10 4 64 108 56 108 -4 0 -1 6 5 13 21 27 94
255 85 269 -3 4 0 8 6 8 6 0 9 3 7 8 -3 4 1 45 8 92 11 77 12 337 1 400 -2 14
-7 42 -10 64 -3 21 -8 42 -11 46 -2 3 -7 21 -10 38 -5 29 -27 105 -42 142 -3
8 -7 20 -8 26 -9 41 -134 272 -178 329 -4 6 -21 27 -37 49 -17 21 -30 43 -30
48 0 5 -4 6 -10 3 -5 -3 -10 -1 -10 4 0 17 -177 189 -232 226 -9 6 -42 29 -74
51 -102 71 -332 184 -375 184 -11 0 -19 4 -19 8 0 4 -12 9 -26 10 -15 1 -33 7
-40 13 -8 6 -14 9 -14 6 0 -3 -17 -1 -37 5 -41 10 -46 11 -168 31 -80 13 -306
15 -400 3 -44 -5 -71 -10 -175 -32 -14 -2 -41 -10 -60 -16 -19 -6 -42 -12 -50
-13 -8 -1 -26 -7 -40 -13 -14 -5 -52 -20 -85 -33 -33 -13 -63 -27 -66 -32 -3
-5 -8 -7 -10 -6 -8 6 -138 -66 -220 -122 -87 -60 -228 -182 -264 -229 -11 -14
-29 -35 -40 -47 -29 -31 -42 -48 -71 -90 -14 -21 -28 -40 -32 -43 -27 -20
-161 -298 -176 -365 -2 -5 -8 -30 -15 -55 -8 -25 -15 -52 -16 -60 -2 -8 -4
-15 -5 -15 -1 0 -3 -11 -5 -25 -2 -14 -6 -36 -10 -50 -24 -95 -24 -381 0 -487
3 -13 7 -33 10 -45 3 -13 7 -35 10 -50 3 -15 10 -40 15 -55 l10 -28 -19 25
c-11 14 -18 27 -15 29 2 2 -1 10 -7 18 -6 7 -9 13 -5 13 3 0 0 16 -8 35 -14
32 -40 125 -50 180 -2 11 -7 31 -10 45 -4 14 -8 41 -11 60 -2 19 -7 55 -10 80
-4 25 -8 91 -9 147 0 57 -5 103 -9 103 -5 0 -5 5 -1 12 4 7 9 46 10 88 1 41 3
75 4 75 1 0 3 14 5 30 7 53 14 100 15 100 1 0 3 11 5 25 2 14 7 39 11 55 3 17
7 37 8 45 1 9 5 20 8 25 3 6 9 26 13 45 6 33 36 122 54 165 5 11 21 49 36 85
25 62 94 191 135 255 11 17 23 37 27 45 4 8 12 21 19 30 45 54 74 94 74 102 0
5 5 6 10 3 6 -3 10 -1 10 5 0 21 167 194 255 265 28 22 52 43 53 48 2 4 10 7
17 7 7 0 15 7 19 15 3 8 12 15 21 15 8 0 15 4 15 8 0 7 25 23 134 89 106 64
340 163 456 193 76 20 199 45 269 54 24 3 46 8 48 10 5 5 392 -1 438 -8z
m-330 -849 c60 -10 101 -18 155 -33 30 -8 65 -17 77 -20 12 -2 35 -9 50 -16
16 -6 33 -12 39 -13 28 -6 268 -129 284 -145 3 -3 32 -25 65 -50 33 -24 78
-61 99 -82 22 -21 44 -38 49 -38 6 0 8 -2 5 -5 -3 -3 16 -27 42 -53 83 -82
207 -281 260 -417 14 -34 23 -59 27 -72 1 -7 5 -19 6 -25 2 -7 7 -20 10 -28 4
-8 9 -26 11 -40 3 -14 5 -25 6 -25 2 0 9 -45 13 -85 2 -20 6 -40 9 -45 9 -16
6 -315 -3 -321 -5 -3 -7 -8 -5 -12 3 -6 -2 -46 -20 -146 -3 -16 -9 -39 -14
-50 -4 -12 -8 -23 -8 -26 0 -7 -38 -101 -58 -147 -9 -21 -16 -41 -16 -45 1 -5
-2 -8 -8 -8 -5 0 -10 -4 -10 -9 0 -10 -69 -132 -79 -141 -3 -3 -19 -25 -36
-50 -16 -25 -77 -92 -135 -150 -189 -189 -404 -309 -680 -381 -47 -12 -52 -13
-160 -25 -135 -16 -398 -6 -439 16 -10 5 -20 7 -22 5 -3 -2 -22 1 -44 6 -22 5
-51 12 -64 15 -43 9 -186 67 -193 78 -4 6 -8 8 -8 3 0 -10 -116 49 -126 64 -3
6 4 4 17 -4 21 -14 117 -43 204 -63 49 -11 277 -13 330 -3 28 5 59 11 70 13
11 2 32 9 48 15 15 6 27 9 27 6 0 -2 17 3 38 12 85 35 128 56 146 72 10 9 20
15 22 13 10 -6 113 71 175 130 70 67 179 204 179 225 0 7 5 13 10 13 6 0 9 3
8 8 -1 4 9 30 21 57 30 64 72 187 66 193 -2 3 0 12 5 21 19 36 28 211 16 314
-8 64 -14 94 -36 177 -15 57 -108 250 -121 250 -5 0 -9 5 -9 11 0 28 -220 259
-247 259 -2 0 -23 13 -46 28 -90 61 -226 112 -362 136 -150 26 -313 15 -467
-34 -37 -11 -71 -20 -74 -20 -4 1 -10 -2 -13 -7 -5 -8 -58 -35 -71 -37 -3 -1
-19 -11 -37 -24 -17 -12 -34 -22 -38 -22 -28 0 -224 -188 -271 -260 -16 -25
-31 -47 -35 -50 -10 -9 -78 -150 -72 -150 3 0 1 -6 -4 -12 -10 -12 -26 -61
-28 -83 0 -5 -4 -15 -7 -21 -27 -42 -42 -289 -25 -399 11 -73 20 -110 29 -121
5 -7 8 -16 7 -20 -2 -10 8 -40 22 -66 6 -12 6 -18 -1 -18 -14 0 -83 146 -96
203 -1 4 -3 9 -4 12 -1 3 -3 8 -4 13 -1 4 -7 23 -14 42 -13 39 -17 60 -37 175
-12 73 -13 291 -1 366 25 160 87 342 153 452 13 20 21 37 17 37 -3 0 1 6 8 13
7 8 26 35 42 60 17 26 34 47 38 47 4 0 8 4 8 10 0 21 164 192 235 245 22 17
49 38 59 48 11 9 24 17 28 17 5 0 17 8 28 18 16 14 167 93 235 123 92 40 240
79 360 94 21 3 40 7 42 9 4 4 314 -2 348 -7z m-651 -768 c-5 -8 -1 -8 14 0 33
18 316 3 332 -18 3 -3 14 -7 25 -9 19 -2 44 -8 55 -12 3 -1 8 -2 13 -1 4 0 7
-4 7 -11 0 -6 3 -9 6 -5 3 3 26 -6 50 -19 24 -14 44 -21 44 -17 0 4 4 4 8 -2
4 -5 30 -26 57 -45 74 -52 99 -73 161 -142 35 -38 94 -125 94 -137 0 -6 5 -11
11 -11 5 0 7 -4 4 -10 -3 -5 -1 -10 4 -10 6 0 10 -3 9 -7 -1 -5 3 -17 9 -28
18 -33 62 -178 66 -216 2 -20 8 -42 12 -49 6 -9 4 -11 -4 -5 -10 5 -11 3 -4
-11 8 -15 10 -139 3 -139 -1 0 -3 -26 -5 -57 -2 -31 -9 -66 -15 -77 -6 -12 -9
-21 -6 -21 3 0 -2 -16 -10 -35 -8 -19 -12 -35 -10 -35 2 0 -9 -27 -25 -60 -16
-33 -29 -63 -28 -66 0 -4 -3 -10 -8 -13 -4 -3 -25 -31 -45 -61 -82 -121 -200
-220 -339 -283 -70 -32 -188 -69 -199 -62 -5 3 -11 1 -14 -4 -7 -11 -273 -8
-320 3 -81 19 -216 72 -216 85 0 5 24 3 54 -4 70 -16 196 -12 268 9 32 9 59
16 60 15 2 -2 22 10 45 24 24 15 45 27 48 27 14 0 123 104 152 145 46 67 81
146 99 226 7 32 7 178 -1 209 -3 14 -8 35 -11 48 -7 33 -54 133 -70 150 -8 7
-14 17 -14 22 0 24 -179 180 -207 180 -5 0 -21 7 -37 15 -15 8 -38 17 -50 19
-95 20 -123 22 -192 19 -109 -5 -108 -5 -119 -13 -5 -4 -23 -10 -40 -14 -77
-18 -195 -105 -263 -193 -37 -47 -89 -154 -96 -198 -3 -16 -8 -41 -11 -55 -11
-50 -6 -152 9 -218 3 -12 3 -22 1 -22 -12 0 -41 88 -72 212 -9 40 -10 250 0
292 5 23 19 73 30 111 11 39 20 73 19 78 -1 4 3 7 8 7 6 0 10 6 10 13 0 19 77
144 114 186 59 67 116 121 126 121 5 0 10 4 10 8 0 21 224 142 248 134 7 -2
12 1 12 7 0 6 3 10 8 9 4 -1 21 1 37 5 17 4 41 9 54 12 13 2 26 7 29 10 9 9
13 5 6 -6z m78 -657 c80 -36 98 -50 168 -132 66 -77 102 -236 78 -344 -26
-116 -119 -235 -222 -286 -35 -17 -69 -32 -77 -33 -8 -2 -18 -5 -24 -8 -20
-11 -143 -10 -186 1 -48 12 -132 50 -137 63 -2 4 -9 7 -16 7 -17 0 -103 97
-132 149 -13 23 -24 52 -24 64 0 13 -4 27 -10 33 -12 12 -15 103 -6 174 21
151 149 291 306 335 84 23 201 14 282 -23z m-1104 -377 c-3 -3 -9 2 -12 12 -6
14 -5 15 5 6 7 -7 10 -15 7 -18z m247 -195 c3 -5 1 -10 -4 -10 -6 0 -11 5 -11
10 0 6 2 10 4 10 3 0 8 -4 11 -10z m498 -343 c4 3 7 1 7 -5 0 -17 -16 -15 -31
6 -12 15 -12 16 2 5 9 -7 19 -10 22 -6z m-78 -295 c-3 -3 -11 0 -18 7 -9 10
-8 11 6 5 10 -3 15 -9 12 -12z"/>
<path d="M1471 566 c-1 -50 -4 -92 -6 -94 -2 -3 -12 3 -21 13 -75 74 -214 24
-241 -88 -22 -93 1 -181 59 -232 37 -31 45 -34 95 -31 31 2 58 8 62 13 3 6 16
15 29 22 19 10 22 9 22 -9 0 -18 6 -20 60 -20 l60 0 0 255 c0 140 -3 256 -7
256 -5 1 -31 2 -59 3 l-51 3 -2 -91z m-11 -186 c8 -24 10 -55 6 -85 -6 -37
-13 -50 -38 -65 -26 -16 -34 -16 -61 -5 -66 28 -69 173 -4 200 46 19 81 3 97
-45z"/>
<path d="M3158 651 c-13 -5 -15 -39 -16 -258 l-1 -252 27 1 c15 0 32 -1 37 -2
28 -6 54 1 49 14 -3 7 2 16 11 20 9 3 18 0 21 -8 3 -8 25 -19 50 -26 77 -22
153 16 184 90 21 50 18 157 -5 200 -22 42 -63 80 -87 80 -10 0 -18 4 -18 9 0
15 -93 -8 -115 -29 -12 -11 -24 -20 -27 -20 -3 0 -6 39 -6 86 -1 48 -4 89 -7
92 -7 8 -78 10 -97 3z m218 -229 c53 -29 52 -172 -2 -192 -66 -25 -105 5 -110
83 -3 61 11 96 45 113 26 14 37 13 67 -4z"/>
<path d="M990 634 c-9 -10 -13 -56 -12 -157 0 -78 1 -146 2 -152 1 -5 2 -12 1
-15 -1 -3 -3 -39 -5 -80 -4 -103 -11 -115 -75 -124 -12 -2 -17 -16 -19 -49
l-3 -47 39 0 c44 0 116 22 136 42 7 7 21 26 32 43 17 27 19 50 20 283 1 248 0
254 -20 262 -12 4 -28 4 -36 0 -9 -5 -23 -4 -32 1 -11 6 -20 4 -28 -7z"/>
<path d="M2168 636 c0 -1 -2 -110 -3 -243 -1 -171 1 -243 9 -244 16 -2 67 -2
94 0 21 1 22 5 22 91 l0 90 34 0 c33 0 85 -36 90 -63 2 -7 14 -36 27 -64 17
-37 30 -53 44 -54 69 -4 98 -3 107 2 13 9 -68 167 -102 199 l-28 26 29 19 c42
29 55 63 50 135 -1 22 -57 99 -67 93 -2 -2 -5 -3 -6 -2 -26 8 -64 11 -170 13
-71 1 -129 2 -130 2z m226 -109 c21 -16 28 -61 11 -83 -7 -10 -32 -19 -63 -22
l-52 -5 0 62 0 61 43 0 c24 0 51 -6 61 -13z"/>
<path d="M4092 606 c-4 -6 -6 -30 -4 -53 2 -42 1 -43 -28 -43 -28 0 -30 -2
-30 -40 0 -22 5 -41 10 -41 6 -1 15 -3 20 -4 6 -1 14 -3 19 -4 5 0 9 -46 9
-101 1 -55 4 -105 9 -112 4 -7 8 -17 8 -22 0 -23 67 -43 137 -42 l73 1 0 40 0
40 -44 2 c-25 2 -49 7 -53 11 -8 8 -11 67 -9 153 l1 36 48 -2 c66 -2 72 2 72
46 l0 39 -62 0 -63 0 2 50 c0 27 -2 51 -5 51 -37 6 -105 3 -110 -5z"/>
<path d="M1855 522 c-134 -26 -186 -82 -188 -200 0 -26 8 -64 18 -85 19 -41
69 -85 101 -90 10 -1 24 -6 31 -10 13 -8 123 -3 168 9 47 11 61 26 61 66 0 38
-12 45 -43 25 -37 -23 -138 -30 -174 -12 -29 16 -48 53 -31 64 6 3 66 6 134 5
127 -1 141 4 133 41 -3 11 -7 33 -9 48 -7 41 -51 94 -97 117 -21 11 -39 18
-39 15 0 -2 -10 -1 -22 3 -13 5 -32 7 -43 4z m42 -87 c25 -6 46 -37 38 -57 -4
-11 -69 -15 -137 -9 -13 1 -9 17 11 42 19 25 49 33 88 24z"/>
<path d="M2820 517 c0 -6 -3 -8 -6 -4 -9 9 -75 -20 -101 -45 -60 -56 -69 -198
-18 -261 44 -53 98 -75 174 -72 99 3 156 40 184 120 17 47 13 124 -8 165 -31
59 -77 89 -150 97 -22 2 -48 5 -57 7 -10 2 -18 -1 -18 -7z m68 -88 c34 -11 52
-49 52 -105 0 -95 -76 -139 -136 -79 -20 19 -23 121 -5 153 7 13 22 27 34 32
12 5 22 9 23 9 1 1 15 -4 32 -10z"/>
<path d="M3745 515 c-71 -19 -99 -39 -131 -98 -17 -31 -26 -135 -13 -143 5 -3
9 -15 9 -27 0 -19 70 -95 91 -98 14 -2 29 -6 32 -9 1 -1 24 -3 52 -5 132 -6
212 62 216 185 3 106 -58 181 -158 195 -21 3 -42 7 -48 8 -5 2 -28 -2 -50 -8z
m107 -103 c21 -21 32 -100 18 -137 -14 -36 -30 -51 -63 -57 -22 -4 -35 1 -57
23 -24 25 -28 36 -28 81 1 29 6 63 11 74 19 43 84 51 119 16z"/>
</g>
</svg>
